<svg width="100" height="99" viewBox="0 0 100 99" fill="none" xmlns="http://www.w3.org/2000/svg">
<path fill-rule="evenodd" clip-rule="evenodd" d="M0 16.5076L38.2403 9.7648L38.2407 9.76431L38.2411 9.76465L70.4219 4.09031L70.4223 4.08983L70.4228 4.09017L93.6192 0L98.5715 28.0858L20.8341 41.793H100V98.8311H4.93653V44.5041L0 16.5076ZM42.9416 18.5886L62.711 15.1027L54.9998 26.1154L35.2304 29.6013L42.9416 18.5886ZM67.4121 23.9268L75.1232 12.9141L85.9081 11.0124L87.5589 20.3744L67.4121 23.9268ZM30.5293 20.7772L22.8182 31.7899L12.6635 33.5804L11.0127 24.2185L30.5293 20.7772ZM14.4429 51.2993H90.4937V89.3247H14.4429V51.2993Z" fill="black"/>
</svg>
